<?xml version="1.0" encoding="us-ascii" standalone="no"?><svg xmlns="http://www.w3.org/2000/svg" xmlns:xlink="http://www.w3.org/1999/xlink" contentStyleType="text/css" height="812px" preserveAspectRatio="none" style="width:526px;height:812px;background:#FFFFFF;" version="1.1" viewBox="0 0 526 812" width="526px" zoomAndPan="magnify"><defs/><g><!--cluster Exercise Correction App--><g id="cluster_Exercise Correction App"><rect fill="none" height="799" rx="2.5" ry="2.5" style="stroke:#181818;stroke-width:1.0;" width="358.53" x="162" y="7"/><text fill="#000000" font-family="sans-serif" font-size="14" font-weight="bold" lengthAdjust="spacing" textLength="192" x="245.265" y="21.9951">Exercise Correction App</text></g><g id="elem_UC1"><ellipse cx="341.2667" cy="63.0013" fill="#F1F1F1" rx="90.5567" ry="20.5113" style="stroke:#181818;stroke-width:0.5;"/><text fill="#000000" font-family="sans-serif" font-size="14" lengthAdjust="spacing" textLength="143" x="269.7667" y="65.848">Create User Account</text></g><g id="elem_UC2"><ellipse cx="341.2726" cy="141.0025" fill="#F1F1F1" rx="98.1626" ry="22.0325" style="stroke:#181818;stroke-width:0.5;"/><text fill="#000000" font-family="sans-serif" font-size="14" lengthAdjust="spacing" textLength="160" x="261.2726" y="143.8492">Access Exercise Library</text></g><g id="elem_UC3"><ellipse cx="341.2743" cy="222.9989" fill="#F1F1F1" rx="111.4443" ry="24.6889" style="stroke:#181818;stroke-width:0.5;"/><text fill="#000000" font-family="sans-serif" font-size="14" lengthAdjust="spacing" textLength="189" x="246.7743" y="225.8455">Select Exercise for Workout</text></g><g id="elem_UC4"><ellipse cx="341.2659" cy="307.9972" fill="#F1F1F1" rx="112.8359" ry="24.9672" style="stroke:#181818;stroke-width:0.5;"/><text fill="#000000" font-family="sans-serif" font-size="14" lengthAdjust="spacing" textLength="192" x="245.2659" y="310.8439">View Exercise Video Tutorial</text></g><g id="elem_UC5"><ellipse cx="341.2742" cy="391.0008" fill="#F1F1F1" rx="102.7042" ry="22.9408" style="stroke:#181818;stroke-width:0.5;"/><text fill="#000000" font-family="sans-serif" font-size="14" lengthAdjust="spacing" textLength="170" x="256.2742" y="393.8475">Request Camera Access</text></g><g id="elem_UC6"><ellipse cx="341.2713" cy="479.0003" fill="#F1F1F1" rx="136.8513" ry="29.7703" style="stroke:#181818;stroke-width:0.5;"/><text fill="#000000" font-family="sans-serif" font-size="14" lengthAdjust="spacing" textLength="243" x="219.7713" y="481.8469">Analyze Exercise Form in Real-Time</text></g><g id="elem_UC7"><ellipse cx="341.2704" cy="569.0001" fill="#F1F1F1" rx="113.3004" ry="25.0601" style="stroke:#181818;stroke-width:0.5;"/><text fill="#000000" font-family="sans-serif" font-size="14" lengthAdjust="spacing" textLength="193" x="244.7704" y="571.8468">Detect Exercise Form Errors</text></g><g id="elem_UC8"><ellipse cx="341.2652" cy="664.003" fill="#F1F1F1" rx="163.2652" ry="35.053" style="stroke:#181818;stroke-width:0.5;"/><text fill="#000000" font-family="sans-serif" font-size="14" lengthAdjust="spacing" textLength="298" x="192.2652" y="666.8497">Provide Auditory Form Correction Feedback</text></g><g id="elem_UC9"><ellipse cx="341.2656" cy="761.9971" fill="#F1F1F1" rx="127.8356" ry="27.9671" style="stroke:#181818;stroke-width:0.5;"/><text fill="#000000" font-family="sans-serif" font-size="14" lengthAdjust="spacing" textLength="224" x="229.2656" y="764.8438">Notify Upon Exercise Completion</text></g><!--entity NU--><g id="elem_NU"><ellipse cx="62" cy="33.35" fill="#F1F1F1" rx="8" ry="8" style="stroke:#181818;stroke-width:0.5;"/><path d="M62,41.35 L62,68.35 M49,49.35 L75,49.35 M62,68.35 L49,83.35 M62,68.35 L75,83.35 " fill="none" style="stroke:#181818;stroke-width:0.5;"/><text fill="#000000" font-family="sans-serif" font-size="14" lengthAdjust="spacing" textLength="66" x="29" y="97.8451">New User</text></g><!--entity RU--><g id="elem_RU"><ellipse cx="62" cy="236.35" fill="#F1F1F1" rx="8" ry="8" style="stroke:#181818;stroke-width:0.5;"/><path d="M62,244.35 L62,271.35 M49,252.35 L75,252.35 M62,271.35 L49,286.35 M62,271.35 L75,286.35 " fill="none" style="stroke:#181818;stroke-width:0.5;"/><text fill="#000000" font-family="sans-serif" font-size="14" lengthAdjust="spacing" textLength="112" x="6" y="300.8451">Registered User</text></g><!--entity App--><g id="elem_App"><ellipse cx="62" cy="586.35" fill="#F1F1F1" rx="8" ry="8" style="stroke:#181818;stroke-width:0.5;"/><path d="M62,594.35 L62,621.35 M49,602.35 L75,602.35 M62,621.35 L49,636.35 M62,621.35 L75,636.35 " fill="none" style="stroke:#181818;stroke-width:0.5;"/><text fill="#000000" font-family="sans-serif" font-size="14" lengthAdjust="spacing" textLength="75" x="24.5" y="650.8451">Application</text></g><!--link NU to UC1--><g id="link_NU_UC1"><path d="M95.35,63 C133.13,63 197.24,63 250.39,63 " fill="none" id="NU-UC1" style="stroke:#181818;stroke-width:1.0;"/></g><!--link RU to UC2--><g id="link_RU_UC2"><path d="M95.35,227.52 C111.36,210.83 131.96,192.51 154,181 C183.76,165.46 219.2,155.95 251.14,150.14 " fill="none" id="RU-UC2" style="stroke:#181818;stroke-width:1.0;"/></g><!--link RU to UC3--><g id="link_RU_UC3"><path d="M118.44,257.4 C155.74,251.62 205.78,243.86 248.9,237.17 " fill="none" id="RU-UC3" style="stroke:#181818;stroke-width:1.0;"/></g><!--link RU to UC4--><g id="link_RU_UC4"><path d="M118.44,274.4 C155.26,279.98 204.51,287.44 247.25,293.91 " fill="none" id="RU-UC4" style="stroke:#181818;stroke-width:1.0;"/></g><!--link RU to UC5--><g id="link_RU_UC5"><path d="M95.88,304.39 C111.85,320.76 132.27,338.66 154,350 C183.06,365.17 217.5,374.74 248.81,380.77 " fill="none" id="RU-UC5" style="stroke:#181818;stroke-width:1.0;"/></g><!--link App to UC6--><g id="link_App_UC6"><path d="M93.5,577.42 C109.69,559.35 130.97,538.99 154,526 C177.09,512.97 203.81,503.51 229.67,496.64 " fill="none" id="App-UC6" style="stroke:#181818;stroke-width:1.0;"/></g><!--link App to UC7--><g id="link_App_UC7"><path d="M99.82,609.76 C137.97,603.29 199.05,592.94 250.1,584.28 " fill="none" id="App-UC7" style="stroke:#181818;stroke-width:1.0;"/></g><!--link App to UC8--><g id="link_App_UC8"><path d="M99.82,622.37 C129.06,627.44 171.77,634.83 213.11,641.99 " fill="none" id="App-UC8" style="stroke:#181818;stroke-width:1.0;"/></g><!--link App to UC9--><g id="link_App_UC9"><path d="M88.65,654.4 C104.94,675.89 127.84,701.42 154,717 C177.44,730.96 204.97,740.6 231.57,747.24 " fill="none" id="App-UC9" style="stroke:#181818;stroke-width:1.0;"/></g><!--SRC=[LP5FKy8m4CNl_HGxlNEG_noP2YUdurIAvv0kk4FQr4sgLiVlRYWXmTjBzhTlNx8AZnQi1gRJcuMA6AKbtIH2MisGvlW9fK5EGHZ8ozjrWISo5XchM2r2TTssYgIu-0mLTquklg8vAOHqyuKioI1aclsu2vB2Jz8PbC9LqenHM1pCOIsbxXexM9NPGuHS0Os1uFT41nRSUt0SmHTKRau4Zoxbg-QpxcwkamZloRqve7kgKCEkSmyZeJmzZNI1xnqQ2vceaGLS8tbiTXUr4Qh_nkYxrLm3DL2WKACTrUXxvh7d4Us_r4FBXbdpRS0Ymi-iFrnKM7SLkQpzbRxxuIrYTH3ox5kNiJNNbeuzbAsZxdPJjmh32ijibVmcUGcZqR23mgjnK9EWfa7D4hVNgvn7kOXo6UNg3m00]--></g></svg>